<?xml version="1.0" standalone="no"?>
<!DOCTYPE svg PUBLIC "-//W3C//DTD SVG 20010904//EN"
 "http://www.w3.org/TR/2001/REC-SVG-20010904/DTD/svg10.dtd">
<svg version="1.0" xmlns="http://www.w3.org/2000/svg"
 width="240.000000pt" height="240.000000pt" viewBox="0 0 240.000000 240.000000"
 preserveAspectRatio="xMidYMid meet">
<metadata>
Created by potrace 1.11, written by Peter Selinger 2001-2013
</metadata>
<g transform="translate(0.000000,240.000000) scale(0.100000,-0.100000)"
fill="#000000" stroke="none">
<path d="M795 1977 c-48 -26 -59 -79 -28 -135 l25 -43 -31 15 c-25 13 -30 22
-29 49 3 97 -112 137 -161 56 l-18 -30 -17 25 c-21 32 -69 58 -98 52 -83 -16
-134 -63 -126 -116 7 -44 -19 -48 -52 -8 -23 27 -34 33 -70 33 -52 0 -89 -37
-86 -84 2 -24 -3 -32 -24 -41 -33 -14 -59 -57 -53 -90 5 -32 35 -62 75 -76 30
-10 32 -14 34 -65 2 -30 6 -68 9 -86 11 -64 105 -87 145 -35 19 23 30 27 73
28 64 1 131 30 186 79 34 31 41 44 41 74 -1 39 -14 62 -46 79 -12 6 -27 25
-32 41 -10 28 -8 31 20 46 17 8 32 14 32 13 20 -58 75 -123 113 -134 2 0 -1
-14 -6 -31 -6 -22 -4 -39 7 -63 45 -93 198 -44 265 85 27 52 31 176 9 247 -30
93 -102 146 -157 115z"/>
<path d="M1070 1885 c-48 -25 -63 -81 -46 -163 34 -164 146 -229 233 -134 29
32 33 33 48 18 38 -37 110 -28 134 18 10 18 19 21 43 18 21 -3 46 3 74 19 l43
23 46 -22 c90 -44 184 -40 257 10 27 18 27 18 39 -4 26 -48 75 -79 113 -72 16
2 43 0 61 -6 20 -6 41 -7 56 -2 17 7 30 4 49 -9 46 -33 79 -32 116 5 27 27 32
38 28 65 -13 83 -77 135 -137 113 -26 -10 -34 -9 -49 5 -11 10 -38 17 -66 18
-26 1 -58 7 -72 12 -19 8 -34 7 -57 -2 -29 -12 -33 -12 -38 4 -13 41 -99 59
-133 28 -26 -23 -54 -21 -120 9 -70 32 -124 29 -201 -10 l-55 -27 -23 30 c-67
86 -175 96 -207 19 -13 -30 -13 -30 -19 -6 -10 40 -77 65 -117 43z m140 -110
c0 -9 16 -25 35 -36 19 -12 35 -25 35 -31 0 -5 -12 0 -26 11 -15 12 -32 21
-39 21 -7 0 -16 7 -19 16 -9 23 -7 34 4 34 6 0 10 -7 10 -15z"/>
<path d="M940 1437 c-159 -66 -246 -156 -299 -307 -19 -55 -97 -145 -138 -161
-23 -9 -41 -12 -148 -25 -27 -3 -85 -17 -128 -31 -126 -39 -181 -113 -147
-193 23 -52 115 -100 223 -115 23 -3 53 -8 67 -10 14 -2 53 -7 88 -10 94 -9
103 -12 120 -37 40 -59 99 -106 150 -121 51 -16 189 -17 260 -3 15 3 45 8 67
11 22 3 76 12 120 20 44 8 96 17 115 20 19 3 55 11 80 16 25 6 59 13 75 15 17
3 51 9 76 14 119 24 245 29 364 15 222 -26 365 -2 438 73 100 103 76 209 -63
279 -35 17 -67 31 -70 31 -3 -1 -12 1 -20 5 -15 6 -91 24 -215 52 l-71 16 1
37 c3 79 -49 196 -116 262 -78 77 -146 99 -317 104 -85 3 -142 11 -209 29 -99
27 -255 35 -303 14z"/>
</g>
</svg>
